<?xml version="1.0" encoding="utf-8"?>
<svg xmlns="http://www.w3.org/2000/svg"
	xmlns:xlink="http://www.w3.org/1999/xlink"
	width="34px" height="34px" viewBox="0 0 34 34">
<style type="text/css"><![CDATA[
.style0 {
  font-size: 20px;
  font-family: "Arial";
  font-weight: 400;
  fill: rgb(72,72,72);
}
]]></style>
<path fillRule="evenodd" d="M 17 32C 25.27 32 32 25.27 32 17 32 8.73 25.27 2 17 2 8.73 2 2 8.73 2 17 2 25.27 8.73 32 17 32M 17 34C 7.61 34-0 26.39-0 17-0 7.61 7.61-0 17-0 26.39-0 34 7.61 34 17 34 26.39 26.39 34 17 34 17 34 17 34 17 34Z" fill="rgb(71,71,71)"/><text transform="translate(12.00,23.50)" class="style0"><tspan x="0.00" fill="rgb(71,71,71)">2</tspan></text></svg>