<?xml version="1.0" encoding="utf-8"?>
<svg xmlns="http://www.w3.org/2000/svg"
	xmlns:xlink="http://www.w3.org/1999/xlink"
	width="49px" height="59px" viewBox="0 0 49 59">
<path fillRule="evenodd" d="M 38.11 49.94C 38.11 49.94 40.97 49.94 40.97 49.94 45.11 49.94 48.55 53.06 48.99 57.2 49.04 57.66 48.89 58.12 48.59 58.47 48.28 58.81 47.85 59 47.4 59 47.4 59 1.6 59 1.6 59 1.13 59 0.68 58.79 0.38 58.43 0.07 58.06-0.06 57.58 0.02 57.1 0.48 54.42 2.73 52.46 5.4 52.37 7.08 50.32 9.61 49.11 12.25 49.11 13.94 49.11 15.56 49.59 16.96 50.48 16.96 50.48 16.96 39.61 16.96 39.61 16.26 39.73 15.54 39.79 14.8 39.79 7.92 39.79 2.32 34.15 2.32 27.2 2.32 25.58 2.62 24.01 3.22 22.52 2.07 20.61 1.46 18.43 1.46 16.17 1.46 9.41 6.92 3.9 13.63 3.9 14.29 3.9 14.95 3.96 15.6 4.06 17.91 1.47 21.17-0 24.64-0 28.11-0 31.38 1.47 33.69 4.06 34.34 3.96 35 3.9 35.66 3.9 42.37 3.9 47.82 9.41 47.82 16.17 47.82 18.43 47.22 20.61 46.07 22.52 46.66 24.01 46.96 25.58 46.96 27.2 46.96 34.15 41.36 39.79 34.48 39.79 34.48 39.79 32.32 39.79 32.32 39.79 32.32 39.79 32.32 47.53 32.32 47.53 34.46 47.72 36.46 48.55 38.11 49.94ZM 32.32 57.14C 32.32 57.14 47.13 57.14 47.13 57.14 46.68 54.08 44.08 51.79 40.97 51.79 40.17 51.79 39.39 51.95 38.65 52.25 38.3 52.39 37.9 52.3 37.64 52.03 36.21 50.53 34.35 49.61 32.32 49.4 32.32 49.4 32.32 57.14 32.32 57.14ZM 25.73 57.14C 25.73 57.14 30.49 57.14 30.49 57.14 30.49 57.14 30.49 39.13 30.49 39.13 30.08 39 29.67 38.83 29.28 38.65 27.77 39.06 26.21 39.27 24.64 39.27 23.07 39.27 21.52 39.06 20.01 38.65 19.61 38.83 19.21 38.99 18.8 39.13 18.8 39.13 18.8 51.27 18.8 51.27 18.88 51.27 18.97 51.27 19.05 51.27 22.46 51.27 25.28 53.83 25.73 57.14ZM 12.25 50.97C 10.03 50.97 7.91 52.05 6.59 53.86 6.4 54.11 6.11 54.25 5.8 54.23 5.73 54.23 5.66 54.23 5.59 54.23 3.82 54.23 2.31 55.44 1.89 57.14 1.89 57.14 23.87 57.14 23.87 57.14 23.44 54.86 21.44 53.12 19.05 53.12 18.7 53.12 18.35 53.16 18.01 53.24 17.71 53.3 17.39 53.21 17.17 52.99 15.85 51.69 14.1 50.97 12.25 50.97ZM 34.48 37.94C 40.35 37.94 45.12 33.12 45.12 27.2 45.12 25.68 44.81 24.2 44.2 22.82 44.07 22.53 44.1 22.19 44.27 21.92 45.39 20.22 45.98 18.23 45.98 16.17 45.98 10.43 41.35 5.76 35.66 5.76 34.94 5.76 34.22 5.83 33.52 5.98 33.19 6.05 32.84 5.93 32.62 5.66 30.65 3.24 27.74 1.86 24.64 1.86 21.54 1.86 18.63 3.24 16.66 5.66 16.45 5.93 16.1 6.05 15.76 5.98 15.06 5.83 14.35 5.76 13.63 5.76 7.94 5.76 3.3 10.43 3.3 16.17 3.3 18.23 3.9 20.22 5.02 21.92 5.19 22.19 5.22 22.53 5.09 22.82 4.48 24.2 4.16 25.68 4.16 27.2 4.16 33.12 8.94 37.94 14.8 37.94 16.46 37.94 18.04 37.57 19.52 36.83 19.72 36.73 19.96 36.71 20.18 36.77 21.63 37.2 23.13 37.41 24.64 37.41 26.16 37.41 27.66 37.2 29.11 36.77 29.19 36.75 29.28 36.73 29.36 36.73 29.5 36.73 29.64 36.77 29.77 36.83 31.24 37.57 32.83 37.94 34.48 37.94ZM 21.86 41.89C 22.37 41.89 22.78 42.3 22.78 42.82 22.78 42.82 22.78 45.95 22.78 45.95 22.78 46.46 22.37 46.88 21.86 46.88 21.36 46.88 20.94 46.46 20.94 45.95 20.94 45.95 20.94 42.82 20.94 42.82 20.94 42.3 21.36 41.89 21.86 41.89ZM 26.99 45.93C 27.5 45.93 27.91 46.35 27.91 46.86 27.91 46.86 27.91 52.05 27.91 52.05 27.91 52.56 27.5 52.98 26.99 52.98 26.48 52.98 26.07 52.56 26.07 52.05 26.07 52.05 26.07 46.86 26.07 46.86 26.07 46.35 26.48 45.93 26.99 45.93Z" fill="rgb(0,0,0)"/></svg>