<?xml version="1.0" encoding="utf-8"?>
<svg xmlns="http://www.w3.org/2000/svg"
	xmlns:xlink="http://www.w3.org/1999/xlink"
	width="55px" height="53px" viewBox="0 0 55 53">
<path fillRule="evenodd" d="M 45.6 31.79C 45.53 31.83 45.48 31.87 45.41 31.9 45.41 31.9 45.34 31.94 45.34 31.94 45.34 31.94 55 37.39 55 37.39 55 37.39 27.5 53 27.5 53 27.5 53 0 37.39 0 37.39 0 37.39 9.66 31.94 9.66 31.94 9.66 31.94 0 26.45 0 26.45 0 26.45 9.66 21 9.66 21 9.66 21 0 15.51 0 15.51 0 15.51 27.5-0.01 27.5-0.01 27.5-0.01 55 15.51 55 15.51 55 15.51 45.33 21 45.33 21 45.33 21 55 26.45 55 26.45 55 26.45 45.6 31.79 45.6 31.79ZM 4.04 37.4C 4.04 37.4 27.5 50.71 27.5 50.71 27.5 50.71 50.95 37.4 50.95 37.4 50.95 37.4 43.31 33.09 43.31 33.09 43.31 33.09 27.5 42.06 27.5 42.06 27.5 42.06 11.68 33.09 11.68 33.09 11.68 33.09 4.04 37.4 4.04 37.4ZM 50.95 15.52C 50.95 15.52 27.5 2.28 27.5 2.28 27.5 2.28 4.04 15.52 4.04 15.52 4.04 15.52 27.5 28.83 27.5 28.83 27.5 28.83 43.31 19.86 43.31 19.86 43.31 19.86 50.95 15.52 50.95 15.52ZM 43.31 22.14C 43.31 22.14 42.99 22.33 42.99 22.33 42.86 22.72 42.5 23.02 42.06 23.02 41.98 23.02 41.92 22.99 41.85 22.98 41.85 22.98 39.65 24.23 39.65 24.23 39.89 24.41 40.05 24.68 40.05 25.01 40.05 25.55 39.61 26 39.05 26 38.54 26 38.13 25.61 38.08 25.12 38.08 25.12 28.02 30.83 28.02 30.83 28.02 30.88 28.04 30.92 28.04 30.97 28.04 31.52 27.6 31.97 27.04 31.97 26.49 31.97 26.04 31.52 26.04 30.97 26.04 30.76 26.12 30.57 26.24 30.41 26.24 30.41 15.9 24.54 15.9 24.54 15.98 24.68 16.03 24.83 16.03 25.01 16.03 25.56 15.59 26 15.03 26 14.48 26 14.03 25.56 14.03 25.01 14.03 24.47 14.46 24.05 14.99 24.02 14.99 24.02 12.72 22.74 12.72 22.74 12.54 22.91 12.3 23.02 12.03 23.02 11.64 23.02 11.3 22.78 11.14 22.45 11.14 22.45 4.04 26.46 4.04 26.46 4.04 26.46 5.4 27.23 5.4 27.23 5.58 27.09 5.79 27 6.03 27 6.58 27 7.03 27.44 7.03 27.99 7.03 28.04 7 28.08 7 28.13 7 28.13 17.06 33.85 17.06 33.85 17.12 33.35 17.52 32.96 18.04 32.96 18.59 32.96 19.04 33.41 19.04 33.96 19.04 34.28 18.87 34.56 18.63 34.74 18.63 34.74 20.83 35.99 20.83 35.99 20.9 35.97 20.97 35.95 21.04 35.95 21.49 35.95 21.85 36.24 21.98 36.64 21.98 36.64 27.5 39.77 27.5 39.77 27.5 39.77 32.09 37.17 32.09 37.17 32.08 37.09 32.05 37.02 32.05 36.94 32.05 36.39 32.5 35.95 33.05 35.95 33.32 35.95 33.56 36.06 33.74 36.23 33.74 36.23 36.01 34.94 36.01 34.94 35.48 34.92 35.05 34.49 35.05 33.96 35.05 33.41 35.5 32.96 36.05 32.96 36.6 32.96 37.05 33.41 37.05 33.96 37.05 34.13 37 34.28 36.92 34.43 36.92 34.43 43.31 30.8 43.31 30.8 43.31 30.8 47.26 28.55 47.26 28.55 47.14 28.39 47.06 28.2 47.06 27.99 47.06 27.44 47.51 26.99 48.06 26.99 48.47 26.99 48.81 27.24 48.97 27.58 48.97 27.58 50.95 26.46 50.95 26.46 50.95 26.46 43.31 22.14 43.31 22.14ZM 45.06 26C 44.51 26 44.06 25.56 44.06 25.01 44.06 24.46 44.51 24.01 45.06 24.01 45.61 24.01 46.06 24.46 46.06 25.01 46.06 25.56 45.61 26 45.06 26ZM 42.06 28.98C 41.5 28.98 41.05 28.54 41.05 27.99 41.05 27.44 41.5 27 42.06 27 42.61 27 43.06 27.44 43.06 27.99 43.06 28.54 42.61 28.98 42.06 28.98ZM 39.05 31.97C 38.5 31.97 38.05 31.52 38.05 30.97 38.05 30.42 38.5 29.98 39.05 29.98 39.61 29.98 40.05 30.42 40.05 30.97 40.05 31.52 39.61 31.97 39.05 31.97ZM 36.05 28.98C 35.5 28.98 35.05 28.54 35.05 27.99 35.05 27.44 35.5 27 36.05 27 36.6 27 37.05 27.44 37.05 27.99 37.05 28.54 36.6 28.98 36.05 28.98ZM 33.05 31.97C 32.5 31.97 32.05 31.52 32.05 30.97 32.05 30.42 32.5 29.98 33.05 29.98 33.6 29.98 34.05 30.42 34.05 30.97 34.05 31.52 33.6 31.97 33.05 31.97ZM 30.05 34.95C 29.49 34.95 29.05 34.51 29.05 33.96 29.05 33.41 29.49 32.96 30.05 32.96 30.6 32.96 31.05 33.41 31.05 33.96 31.05 34.51 30.6 34.95 30.05 34.95ZM 27.04 37.94C 26.49 37.94 26.04 37.49 26.04 36.94 26.04 36.39 26.49 35.95 27.04 35.95 27.6 35.95 28.04 36.39 28.04 36.94 28.04 37.49 27.6 37.94 27.04 37.94ZM 24.04 34.95C 23.49 34.95 23.04 34.51 23.04 33.96 23.04 33.41 23.49 32.96 24.04 32.96 24.59 32.96 25.04 33.41 25.04 33.96 25.04 34.51 24.59 34.95 24.04 34.95ZM 21.04 31.97C 20.49 31.97 20.04 31.52 20.04 30.97 20.04 30.42 20.49 29.98 21.04 29.98 21.59 29.98 22.04 30.42 22.04 30.97 22.04 31.52 21.59 31.97 21.04 31.97ZM 18.04 28.98C 17.48 28.98 17.04 28.54 17.04 27.99 17.04 27.44 17.48 27 18.04 27 18.59 27 19.04 27.44 19.04 27.99 19.04 28.54 18.59 28.98 18.04 28.98ZM 15.03 31.97C 14.48 31.97 14.03 31.52 14.03 30.97 14.03 30.42 14.48 29.98 15.03 29.98 15.59 29.98 16.03 30.42 16.03 30.97 16.03 31.52 15.59 31.97 15.03 31.97ZM 12.03 28.98C 11.48 28.98 11.03 28.54 11.03 27.99 11.03 27.44 11.48 27 12.03 27 12.58 27 13.03 27.44 13.03 27.99 13.03 28.54 12.58 28.98 12.03 28.98ZM 9.03 26C 8.48 26 8.03 25.56 8.03 25.01 8.03 24.46 8.48 24.01 9.03 24.01 9.58 24.01 10.03 24.46 10.03 25.01 10.03 25.56 9.58 26 9.03 26Z" fill="rgb(0,0,0)"/></svg>